<svg width="18" height="23" viewBox="0 0 18 23" fill="none" xmlns="http://www.w3.org/2000/svg">
<path fill-rule="evenodd" clip-rule="evenodd" d="M9.65773 21.7533L9 22.3276L8.34227 21.7533C2.81131 16.9237 0 12.7068 0 9C0 3.75066 4.09705 0 9 0C13.9029 0 18 3.75066 18 9C18 12.7068 15.1887 16.9237 9.65773 21.7533ZM2 9C2 11.8492 4.30661 15.4335 9 19.6634C13.6934 15.4335 16 11.8492 16 9C16 4.8966 12.8359 2 9 2C5.16411 2 2 4.8966 2 9ZM9 4C11.7614 4 14 6.23858 14 9C14 11.7614 11.7614 14 9 14C6.23858 14 4 11.7614 4 9C4 6.23858 6.23858 4 9 4ZM9 6C7.34315 6 6 7.34315 6 9C6 10.6569 7.34315 12 9 12C10.6569 12 12 10.6569 12 9C12 7.34315 10.6569 6 9 6Z" fill="white"/>
</svg>
