<svg width="16" height="24" viewBox="0 0 16 24" fill="none" xmlns="http://www.w3.org/2000/svg">
<path d="M14.9174 7.27898L15.9085 7.1454L15.7577 6.02658L14.6652 6.31131L14.9174 7.27898ZM1.06806 9.31011L0.0770115 9.44363L0.07705 9.44391L1.06806 9.31011ZM14.9157 7.27943L13.9246 7.41295L14.0754 8.53185L15.1679 8.24711L14.9157 7.27943ZM8.09051 16.9636L8.05258 15.9643C7.66474 15.9791 7.32045 16.2169 7.16937 16.5744L8.09051 16.9636ZM7.0187 19.5L6.09756 19.1108C5.96707 19.4196 6 19.7732 6.18526 20.0526C6.37051 20.332 6.68345 20.5 7.0187 20.5V19.5ZM12.5 19L12.6795 19.9838C13.0144 19.9227 13.2953 19.6953 13.4248 19.3804C13.5543 19.0655 13.5147 18.7064 13.3197 18.4272L12.5 19ZM11 16.8532L11.8197 16.2804C11.625 16.0017 11.3019 15.841 10.9621 15.8539L11 16.8532ZM14 24C14.5523 24 15 23.5523 15 23C15 22.4477 14.5523 22 14 22V24ZM10.6952 19.1988C10.5006 18.682 9.92382 18.4207 9.40696 18.6154C8.8901 18.81 8.62888 19.3868 8.82349 19.9036L10.6952 19.1988ZM9.75935 19.5V20.5H9.84982L9.93882 20.4838L9.75935 19.5ZM13.9264 7.41255C14.229 9.65779 13.5662 11.7338 12.5052 13.3008C11.4187 14.9053 10.0251 15.8261 9.01621 15.9742L9.30676 17.953C11.0675 17.6945 12.8921 16.2965 14.1612 14.4222C15.4558 12.5103 16.2861 9.94743 15.9085 7.1454L13.9264 7.41255ZM9.01621 15.9742C8.01253 16.1216 6.43722 15.6369 4.9734 14.4091C3.54454 13.2106 2.36074 11.4107 2.05907 9.17632L0.07705 9.44391C0.454353 12.2385 1.93241 14.4687 3.6881 15.9414C5.40882 17.3847 7.54074 18.2123 9.30676 17.953L9.01621 15.9742ZM2.05911 9.1766C1.9481 8.35261 1.9938 7.51393 2.19331 6.70899L0.252055 6.22783C-0.00819683 7.2778 -0.0675803 8.37034 0.0770116 9.44363L2.05911 9.1766ZM2.19331 6.70899C2.39282 5.9041 2.7418 5.15032 3.21853 4.49025L1.59718 3.31925C0.96878 4.18933 0.512315 5.17781 0.252055 6.22783L2.19331 6.70899ZM3.21853 4.49025C3.6952 3.83027 4.2898 3.27744 4.96675 2.8614L3.91954 1.15747C3.01423 1.71386 2.22565 2.44909 1.59718 3.31925L3.21853 4.49025ZM4.96675 2.8614C5.64358 2.44543 6.39016 2.17387 7.16379 2.06043L6.8736 0.0815889C5.82873 0.234814 4.82497 0.601013 3.91954 1.15747L4.96675 2.8614ZM7.16379 2.06043C7.93736 1.94698 8.72484 1.99354 9.48191 2.19781L10.0029 0.266854C8.98208 -0.00856769 7.91853 -0.0716434 6.8736 0.0815889L7.16379 2.06043ZM9.48191 2.19781C10.2391 2.40209 10.9527 2.76061 11.5816 3.25499L12.8177 1.6827C11.9799 1.02407 11.0236 0.542252 10.0029 0.266854L9.48191 2.19781ZM11.5816 3.25499C12.2105 3.74945 12.7426 4.3704 13.1454 5.08396L14.887 4.10065C14.3578 3.16341 13.6553 2.34125 12.8177 1.6827L11.5816 3.25499ZM13.1454 5.08396C13.5484 5.7976 13.8136 6.58897 13.9246 7.41295L15.9067 7.14592C15.7621 6.07262 15.4161 5.03782 14.887 4.10065L13.1454 5.08396ZM15.1679 8.24711L15.1696 8.24665L14.6652 6.31131L14.6635 6.31176L15.1679 8.24711ZM7.16937 16.5744L6.09756 19.1108L7.93983 19.8892L9.01164 17.3529L7.16937 16.5744ZM13.3197 18.4272L11.8197 16.2804L10.1803 17.4259L11.6803 19.5728L13.3197 18.4272ZM10.9621 15.8539L8.05258 15.9643L8.12844 17.9629L11.0379 17.8525L10.9621 15.8539ZM14 22C12.6822 22 12.116 21.6952 11.774 21.3464C11.3587 20.9228 11.1057 20.289 10.6952 19.1988L8.82349 19.9036C9.18703 20.8691 9.57429 21.9596 10.3458 22.7465C11.1906 23.6082 12.3577 24 14 24V22ZM7.0187 20.5H9.75935V18.5H7.0187V20.5ZM9.93882 20.4838L12.6795 19.9838L12.3205 18.0162L9.57987 18.5162L9.93882 20.4838Z" fill="#333333"/>
</svg>
