<svg width="19" height="20" viewBox="0 0 19 20" fill="none" xmlns="http://www.w3.org/2000/svg">
<path fill-rule="evenodd" clip-rule="evenodd" d="M2.67868 2.77157C2.27762 3.30631 2 4.09088 2 5C2 5.90912 2.27762 6.69369 2.67868 7.22843C3.0795 7.76286 3.5569 8 4 8C4.4431 8 4.9205 7.76286 5.32132 7.22843C5.72237 6.69369 6 5.90912 6 5C6 4.09088 5.72237 3.30631 5.32132 2.77157C4.9205 2.23714 4.4431 2 4 2C3.5569 2 3.0795 2.23714 2.67868 2.77157ZM1.07868 1.57157C1.76364 0.65829 2.78625 2.18557e-08 4 2.18557e-08C5.21375 2.18557e-08 6.23636 0.65829 6.92132 1.57157C7.60605 2.48455 8 3.69998 8 5C8 6.30002 7.60605 7.51545 6.92132 8.42843C6.23636 9.34171 5.21375 10 4 10C2.78625 10 1.76364 9.34171 1.07868 8.42843C0.393948 7.51545 0 6.30002 0 5C0 3.69998 0.393948 2.48455 1.07868 1.57157Z" fill="#333333"/>
<path fill-rule="evenodd" clip-rule="evenodd" d="M4 9C4.55228 9 5 9.44772 5 10V19C5 19.5523 4.55228 20 4 20C3.44772 20 3 19.5523 3 19V10C3 9.44772 3.44772 9 4 9Z" fill="#333333"/>
<path fill-rule="evenodd" clip-rule="evenodd" d="M14.603 0C15.1553 1.20706e-08 15.603 0.447715 15.603 1V19C15.603 19.5523 15.1553 20 14.603 20C14.0507 20 13.603 19.5523 13.603 19V1C13.603 0.447715 14.0507 -1.20705e-08 14.603 0Z" fill="#333333"/>
<path fill-rule="evenodd" clip-rule="evenodd" d="M12 1.00012C12.5523 1.00012 13 1.44784 13 2.00012C13 3.13435 13.0003 4.04216 13.0393 4.78358C13.0787 5.5344 13.155 6.02859 13.27 6.35991C13.3737 6.65885 13.4868 6.76556 13.597 6.82912C13.7436 6.91361 14.0275 7.00012 14.6015 7.00012C15.1756 7.00012 15.4595 6.91361 15.6061 6.82912C15.7163 6.76556 15.8294 6.65885 15.9331 6.35991C16.048 6.02859 16.1243 5.5344 16.1638 4.78358C16.2028 4.04216 16.2031 3.13435 16.2031 2.00012C16.2031 1.44784 16.6508 1.00012 17.2031 1.00012C17.7554 1.00012 18.2031 1.44784 18.2031 2.00012V2.02387C18.2031 3.12962 18.2031 4.08881 18.161 4.88854C18.1192 5.6846 18.0329 6.40916 17.8227 7.01534C17.6012 7.6539 17.2265 8.20344 16.6051 8.56175C16.0199 8.89913 15.3283 9.00012 14.6015 9.00012C13.8748 9.00012 13.1832 8.89913 12.598 8.56175C11.9766 8.20344 11.6019 7.6539 11.3804 7.01534C11.1701 6.40916 11.0839 5.6846 11.042 4.88854C11 4.08881 11 3.12962 11 2.02387V2.00012C11 1.44784 11.4477 1.00012 12 1.00012Z" fill="#333333"/>
</svg>
